<?xml version="1.0" encoding="UTF-8"?>
<svg width="600px" height="343px" viewBox="0 0 600 343" version="1.1" xmlns="http://www.w3.org/2000/svg" xmlns:xlink="http://www.w3.org/1999/xlink">
    <title>Logo sample</title>
    <g id="Page-1" stroke="none" stroke-width="1" fill="none" fill-rule="evenodd">
        <g id="Logo-sample">
            <path d="M107.953203,325.905292 L107.953203,302.079109 L116.416713,302.079109 L116.416713,297.867409 L94.3955432,297.867409 L94.3955432,302.079109 L102.859053,302.079109 L102.859053,325.905292 L107.953203,325.905292 Z M124.679666,325.905292 L124.679666,313.310306 C125.37493,312.213928 126.230641,311.391643 127.246797,310.843454 C128.262953,310.295265 129.345961,310.02117 130.495822,310.02117 C133.116435,310.02117 134.426741,311.42507 134.426741,314.232869 L134.426741,314.232869 L134.426741,325.905292 L139.48078,325.905292 L139.48078,313.751532 C139.48078,311.42507 138.838997,309.559889 137.555432,308.155989 C136.271866,306.752089 134.333148,306.050139 131.739276,306.050139 C128.851253,306.050139 126.49805,307.066295 124.679666,309.098607 L124.679666,309.098607 L124.679666,296.262953 L119.625627,296.262953 L119.625627,325.905292 L124.679666,325.905292 Z M154.923677,326.506964 C156.340947,326.506964 157.764903,326.38663 159.195543,326.145961 C160.626184,325.905292 161.7961,325.597772 162.705292,325.223398 L162.705292,325.223398 L162.705292,321.332591 C161.742618,321.706964 160.619499,322.001114 159.335933,322.215042 C158.052368,322.428969 156.795543,322.535933 155.56546,322.535933 C150.939276,322.535933 148.452368,321.105292 148.104735,318.244011 L148.104735,318.244011 L164.510306,318.244011 L164.510306,315.917549 C164.510306,314.018942 164.109192,312.327577 163.306964,310.843454 C162.504735,309.359331 161.308078,308.189415 159.716992,307.333705 C158.125905,306.477994 156.207242,306.050139 153.961003,306.050139 C150.538162,306.050139 147.904178,306.972702 146.059053,308.817827 C144.213928,310.662953 143.291365,313.163231 143.291365,316.318663 C143.291365,319.527577 144.334262,322.027855 146.420056,323.819499 C148.50585,325.611142 151.34039,326.506964 154.923677,326.506964 Z M159.737047,314.794429 L148.104735,314.794429 C148.158217,313.323677 148.693036,312.160446 149.709192,311.304735 C150.725348,310.449025 152.115877,310.02117 153.88078,310.02117 C155.672423,310.02117 157.083008,310.435655 158.112535,311.264624 C159.142061,312.093593 159.683565,313.270195 159.737047,314.794429 L159.737047,314.794429 Z M185.849582,326.506964 C188.309749,326.506964 190.221727,325.805014 191.585515,324.401114 C192.949304,322.997214 193.631198,321.065181 193.631198,318.605014 L193.631198,318.605014 L193.631198,297.867409 L188.537047,297.867409 L188.537047,318.324234 C188.537047,320.811142 187.226741,322.054596 184.606128,322.054596 C183.322563,322.054596 182.239554,321.867409 181.357103,321.493036 L181.357103,321.493036 L181.357103,325.744847 C181.811699,325.958774 182.473538,326.139276 183.342618,326.286351 C184.211699,326.433426 185.047354,326.506964 185.849582,326.506964 Z M205.504178,326.506964 C207.028412,326.506964 208.318663,326.293036 209.37493,325.865181 C210.431198,325.437326 211.373816,324.822284 212.202786,324.020056 L212.202786,324.020056 L212.202786,325.905292 L216.976045,325.905292 L216.976045,314.152646 C216.976045,311.612256 216.173816,309.626741 214.569359,308.1961 C212.964903,306.76546 210.491365,306.050139 207.148747,306.050139 C205.891922,306.050139 204.588301,306.170474 203.237883,306.411142 C201.887465,306.651811 200.811142,306.959331 200.008914,307.333705 L200.008914,307.333705 L200.008914,311.304735 C200.891365,310.903621 201.907521,310.589415 203.057382,310.362117 C204.207242,310.134819 205.370474,310.02117 206.547075,310.02117 C208.418942,310.02117 209.776045,310.328691 210.618384,310.943733 C211.460724,311.558774 211.881894,312.548189 211.881894,313.911978 L211.881894,313.911978 L211.881894,314.433426 C210.116992,313.444011 208.017827,312.949304 205.584401,312.949304 C203.070752,312.949304 201.118663,313.550975 199.728134,314.754318 C198.337604,315.95766 197.64234,317.628969 197.64234,319.768245 C197.64234,321.827298 198.377716,323.465181 199.848468,324.681894 C201.31922,325.898607 203.204457,326.506964 205.504178,326.506964 Z M206.747632,322.816713 C205.464067,322.816713 204.481337,322.562674 203.799443,322.054596 C203.117549,321.546518 202.776602,320.784401 202.776602,319.768245 C202.776602,317.682451 204.127019,316.639554 206.827855,316.639554 C208.726462,316.639554 210.411142,317.161003 211.881894,318.2039 L211.881894,318.2039 L211.881894,320.329805 C211.400557,321.105292 210.705292,321.713649 209.7961,322.154875 C208.886908,322.5961 207.870752,322.816713 206.747632,322.816713 Z M226.642897,325.905292 L226.642897,313.310306 C227.338162,312.213928 228.193872,311.391643 229.210028,310.843454 C230.226184,310.295265 231.309192,310.02117 232.459053,310.02117 C235.079666,310.02117 236.389972,311.42507 236.389972,314.232869 L236.389972,314.232869 L236.389972,325.905292 L241.444011,325.905292 L241.444011,313.751532 C241.444011,311.42507 240.802228,309.559889 239.518663,308.155989 C238.235097,306.752089 236.296379,306.050139 233.702507,306.050139 C232.311978,306.050139 230.988301,306.310864 229.731476,306.832312 C228.474652,307.35376 227.391643,308.162674 226.482451,309.259053 L226.482451,309.259053 L226.482451,306.651811 L221.588858,306.651811 L221.588858,325.905292 L226.642897,325.905292 Z M256.886908,326.506964 C258.304178,326.506964 259.728134,326.38663 261.158774,326.145961 C262.589415,325.905292 263.759331,325.597772 264.668524,325.223398 L264.668524,325.223398 L264.668524,321.332591 C263.70585,321.706964 262.58273,322.001114 261.299164,322.215042 C260.015599,322.428969 258.758774,322.535933 257.528691,322.535933 C252.902507,322.535933 250.415599,321.105292 250.067967,318.244011 L250.067967,318.244011 L266.473538,318.244011 L266.473538,315.917549 C266.473538,314.018942 266.072423,312.327577 265.270195,310.843454 C264.467967,309.359331 263.271309,308.189415 261.680223,307.333705 C260.089136,306.477994 258.170474,306.050139 255.924234,306.050139 C252.501393,306.050139 249.867409,306.972702 248.022284,308.817827 C246.177159,310.662953 245.254596,313.163231 245.254596,316.318663 C245.254596,319.527577 246.297493,322.027855 248.383287,323.819499 C250.469081,325.611142 253.303621,326.506964 256.886908,326.506964 Z M261.700279,314.794429 L250.067967,314.794429 C250.121448,313.323677 250.656267,312.160446 251.672423,311.304735 C252.688579,310.449025 254.079109,310.02117 255.844011,310.02117 C257.635655,310.02117 259.04624,310.435655 260.075766,311.264624 C261.105292,312.093593 261.646797,313.270195 261.700279,314.794429 L261.700279,314.794429 Z M293.027298,326.506964 C296.530362,326.506964 299.177716,325.818384 300.969359,324.441226 C302.761003,323.064067 303.656825,321.132033 303.656825,318.645125 C303.656825,317.201114 303.38273,315.977716 302.83454,314.97493 C302.286351,313.972145 301.470752,313.096379 300.387744,312.347632 C299.304735,311.598886 297.827298,310.836769 295.955432,310.061281 C294.110306,309.285794 292.833426,308.717549 292.124791,308.356546 C291.416156,307.995543 290.847911,307.554318 290.420056,307.032869 C289.992201,306.511421 289.778273,305.836212 289.778273,305.007242 C289.778273,303.857382 290.24624,302.968245 291.182173,302.339833 C292.118106,301.711421 293.441783,301.397214 295.153203,301.397214 C297.533148,301.397214 299.886351,301.958774 302.212813,303.081894 L302.212813,303.081894 L302.212813,298.830084 C301.009471,298.295265 299.786072,297.900836 298.542618,297.646797 C297.299164,297.392758 295.875209,297.265738 294.270752,297.265738 C292.318663,297.265738 290.593872,297.58663 289.096379,298.228412 C287.598886,298.870195 286.435655,299.779387 285.606685,300.955989 C284.777716,302.132591 284.363231,303.483008 284.363231,305.007242 C284.363231,306.959331 284.951532,308.590529 286.128134,309.900836 C287.304735,311.211142 289.203343,312.401114 291.823955,313.470752 C293.535376,314.139276 294.805571,314.68078 295.63454,315.095265 C296.46351,315.509749 297.091922,315.991086 297.519777,316.539276 C297.947632,317.087465 298.16156,317.776045 298.16156,318.605014 C298.16156,319.781616 297.693593,320.704178 296.75766,321.372702 C295.821727,322.041226 294.457939,322.375487 292.666295,322.375487 C291.249025,322.375487 289.805014,322.215042 288.334262,321.89415 C286.86351,321.573259 285.45961,321.091922 284.122563,320.450139 L284.122563,320.450139 L284.122563,324.822284 C285.16546,325.330362 286.495822,325.738162 288.113649,326.045682 C289.731476,326.353203 291.369359,326.506964 293.027298,326.506964 Z M314.005571,326.506964 C315.66351,326.506964 317.067409,326.279666 318.21727,325.82507 L318.21727,325.82507 L318.21727,321.974373 C317.415042,322.348747 316.599443,322.535933 315.770474,322.535933 C314.567131,322.535933 313.738162,322.275209 313.283565,321.75376 C312.828969,321.232312 312.601671,320.356546 312.601671,319.126462 L312.601671,319.126462 L312.601671,310.502507 L317.214485,310.502507 L317.214485,306.651811 L312.601671,306.651811 L312.601671,300.875766 L307.547632,300.875766 L307.547632,306.651811 L304.65961,306.651811 L304.65961,310.502507 L307.547632,310.502507 L307.547632,319.768245 C307.547632,321.907521 308.095822,323.56546 309.192201,324.742061 C310.288579,325.918663 311.893036,326.506964 314.005571,326.506964 Z M326.881337,325.905292 L326.881337,314.232869 C327.442897,312.949304 328.438997,312.006685 329.869638,311.405014 C331.300279,310.803343 332.991643,310.502507 334.943733,310.502507 L334.943733,310.502507 L334.943733,306.651811 C333.098607,306.651811 331.460724,306.90585 330.030084,307.413928 C328.599443,307.922006 327.496379,308.697493 326.720891,309.74039 L326.720891,309.74039 L326.720891,306.651811 L321.827298,306.651811 L321.827298,325.905292 L326.881337,325.905292 Z M347.779387,326.506964 C349.196657,326.506964 350.620613,326.38663 352.051253,326.145961 C353.481894,325.905292 354.651811,325.597772 355.561003,325.223398 L355.561003,325.223398 L355.561003,321.332591 C354.598329,321.706964 353.475209,322.001114 352.191643,322.215042 C350.908078,322.428969 349.651253,322.535933 348.42117,322.535933 C343.794986,322.535933 341.308078,321.105292 340.960446,318.244011 L340.960446,318.244011 L357.366017,318.244011 L357.366017,315.917549 C357.366017,314.018942 356.964903,312.327577 356.162674,310.843454 C355.360446,309.359331 354.163788,308.189415 352.572702,307.333705 C350.981616,306.477994 349.062953,306.050139 346.816713,306.050139 C343.393872,306.050139 340.759889,306.972702 338.914763,308.817827 C337.069638,310.662953 336.147075,313.163231 336.147075,316.318663 C336.147075,319.527577 337.189972,322.027855 339.275766,323.819499 C341.36156,325.611142 344.1961,326.506964 347.779387,326.506964 Z M352.592758,314.794429 L340.960446,314.794429 C341.013928,313.323677 341.548747,312.160446 342.564903,311.304735 C343.581058,310.449025 344.971588,310.02117 346.73649,310.02117 C348.528134,310.02117 349.938719,310.435655 350.968245,311.264624 C351.997772,312.093593 352.539276,313.270195 352.592758,314.794429 L352.592758,314.794429 Z M372.207242,326.506964 C373.624513,326.506964 375.048468,326.38663 376.479109,326.145961 C377.909749,325.905292 379.079666,325.597772 379.988858,325.223398 L379.988858,325.223398 L379.988858,321.332591 C379.026184,321.706964 377.903064,322.001114 376.619499,322.215042 C375.335933,322.428969 374.079109,322.535933 372.849025,322.535933 C368.222841,322.535933 365.735933,321.105292 365.388301,318.244011 L365.388301,318.244011 L381.793872,318.244011 L381.793872,315.917549 C381.793872,314.018942 381.392758,312.327577 380.590529,310.843454 C379.788301,309.359331 378.591643,308.189415 377.000557,307.333705 C375.409471,306.477994 373.490808,306.050139 371.244568,306.050139 C367.821727,306.050139 365.187744,306.972702 363.342618,308.817827 C361.497493,310.662953 360.57493,313.163231 360.57493,316.318663 C360.57493,319.527577 361.617827,322.027855 363.703621,323.819499 C365.789415,325.611142 368.623955,326.506964 372.207242,326.506964 Z M377.020613,314.794429 L365.388301,314.794429 C365.441783,313.323677 365.976602,312.160446 366.992758,311.304735 C368.008914,310.449025 369.399443,310.02117 371.164345,310.02117 C372.955989,310.02117 374.366574,310.435655 375.3961,311.264624 C376.425627,312.093593 376.967131,313.270195 377.020613,314.794429 L377.020613,314.794429 Z M393.546518,326.506964 C395.204457,326.506964 396.608357,326.279666 397.758217,325.82507 L397.758217,325.82507 L397.758217,321.974373 C396.955989,322.348747 396.14039,322.535933 395.311421,322.535933 C394.108078,322.535933 393.279109,322.275209 392.824513,321.75376 C392.369916,321.232312 392.142618,320.356546 392.142618,319.126462 L392.142618,319.126462 L392.142618,310.502507 L396.755432,310.502507 L396.755432,306.651811 L392.142618,306.651811 L392.142618,300.875766 L387.088579,300.875766 L387.088579,306.651811 L384.200557,306.651811 L384.200557,310.502507 L387.088579,310.502507 L387.088579,319.768245 C387.088579,321.907521 387.636769,323.56546 388.733148,324.742061 C389.829526,325.918663 391.433983,326.506964 393.546518,326.506964 Z M420.862396,325.905292 L420.862396,296.262953 L415.808357,296.262953 L415.808357,325.905292 L420.862396,325.905292 Z M436.144847,326.506964 C438.391086,326.506964 440.363231,326.099164 442.061281,325.283565 C443.759331,324.467967 445.076323,323.291365 446.012256,321.75376 C446.948189,320.216156 447.416156,318.391086 447.416156,316.278552 C447.416156,314.219499 446.948189,312.42117 446.012256,310.883565 C445.076323,309.345961 443.759331,308.155989 442.061281,307.313649 C440.363231,306.471309 438.391086,306.050139 436.144847,306.050139 C433.898607,306.050139 431.919777,306.471309 430.208357,307.313649 C428.496936,308.155989 427.179944,309.345961 426.257382,310.883565 C425.334819,312.42117 424.873538,314.219499 424.873538,316.278552 C424.873538,318.391086 425.341504,320.216156 426.277437,321.75376 C427.21337,323.291365 428.530362,324.467967 430.228412,325.283565 C431.926462,326.099164 433.898607,326.506964 436.144847,326.506964 Z M436.144847,322.535933 C434.299721,322.535933 432.828969,321.954318 431.732591,320.791086 C430.636212,319.627855 430.088022,318.123677 430.088022,316.278552 C430.088022,314.326462 430.629526,312.795543 431.712535,311.685794 C432.795543,310.576045 434.272981,310.02117 436.144847,310.02117 C438.016713,310.02117 439.49415,310.576045 440.577159,311.685794 C441.660167,312.795543 442.201671,314.326462 442.201671,316.278552 C442.201671,318.123677 441.653482,319.627855 440.557103,320.791086 C439.460724,321.954318 437.989972,322.535933 436.144847,322.535933 Z M461.615599,335.130919 C465.573259,335.130919 468.508078,334.228412 470.420056,332.423398 C472.332033,330.618384 473.288022,328.057939 473.288022,324.742061 L473.288022,324.742061 L473.288022,306.651811 L468.394429,306.651811 L468.394429,308.89805 C467.29805,307.881894 466.16156,307.153203 464.984958,306.711978 C463.808357,306.270752 462.404457,306.050139 460.773259,306.050139 C458.82117,306.050139 457.076323,306.471309 455.538719,307.313649 C454.001114,308.155989 452.797772,309.345961 451.928691,310.883565 C451.05961,312.42117 450.62507,314.206128 450.62507,316.23844 C450.62507,318.244011 451.066295,320.022284 451.948747,321.573259 C452.831198,323.124234 454.061281,324.334262 455.638997,325.203343 C457.216713,326.072423 458.981616,326.506964 460.933705,326.506964 C462.377716,326.506964 463.728134,326.299721 464.984958,325.885237 C466.241783,325.470752 467.324791,324.849025 468.233983,324.020056 L468.233983,324.020056 L468.233983,325.26351 C468.233983,327.215599 467.71922,328.686351 466.689694,329.675766 C465.660167,330.665181 463.968802,331.159889 461.615599,331.159889 C458.994986,331.159889 456.641783,330.705292 454.555989,329.7961 L454.555989,329.7961 L454.555989,333.807242 C455.411699,334.208357 456.481337,334.529248 457.764903,334.769916 C459.048468,335.010585 460.332033,335.130919 461.615599,335.130919 Z M462.016713,322.535933 C460.198329,322.535933 458.700836,321.947632 457.524234,320.771031 C456.347632,319.594429 455.759331,318.083565 455.759331,316.23844 C455.759331,314.393315 456.347632,312.895822 457.524234,311.745961 C458.700836,310.5961 460.198329,310.02117 462.016713,310.02117 C463.460724,310.02117 464.74429,310.408914 465.867409,311.184401 C466.990529,311.959889 467.779387,313.002786 468.233983,314.313092 L468.233983,314.313092 L468.233983,318.2039 C467.806128,319.514206 467.023955,320.563788 465.887465,321.352646 C464.750975,322.141504 463.460724,322.535933 462.016713,322.535933 Z M487.567688,326.506964 C489.813928,326.506964 491.786072,326.099164 493.484123,325.283565 C495.182173,324.467967 496.499164,323.291365 497.435097,321.75376 C498.371031,320.216156 498.838997,318.391086 498.838997,316.278552 C498.838997,314.219499 498.371031,312.42117 497.435097,310.883565 C496.499164,309.345961 495.182173,308.155989 493.484123,307.313649 C491.786072,306.471309 489.813928,306.050139 487.567688,306.050139 C485.321448,306.050139 483.342618,306.471309 481.631198,307.313649 C479.919777,308.155989 478.602786,309.345961 477.680223,310.883565 C476.75766,312.42117 476.296379,314.219499 476.296379,316.278552 C476.296379,318.391086 476.764345,320.216156 477.700279,321.75376 C478.636212,323.291365 479.953203,324.467967 481.651253,325.283565 C483.349304,326.099164 485.321448,326.506964 487.567688,326.506964 Z M487.567688,322.535933 C485.722563,322.535933 484.251811,321.954318 483.155432,320.791086 C482.059053,319.627855 481.510864,318.123677 481.510864,316.278552 C481.510864,314.326462 482.052368,312.795543 483.135376,311.685794 C484.218384,310.576045 485.695822,310.02117 487.567688,310.02117 C489.439554,310.02117 490.916992,310.576045 492,311.685794 C493.083008,312.795543 493.624513,314.326462 493.624513,316.278552 C493.624513,318.123677 493.076323,319.627855 491.979944,320.791086 C490.883565,321.954318 489.412813,322.535933 487.567688,322.535933 Z M504.093593,325.905292 C504.655153,325.905292 505.13649,325.711421 505.537604,325.323677 C505.938719,324.935933 506.139276,324.461281 506.139276,323.899721 C506.139276,323.311421 505.938719,322.816713 505.537604,322.415599 C505.13649,322.014485 504.655153,321.813928 504.093593,321.813928 C503.532033,321.813928 503.050696,322.014485 502.649582,322.415599 C502.248468,322.816713 502.047911,323.311421 502.047911,323.899721 C502.047911,324.461281 502.248468,324.935933 502.649582,325.323677 C503.050696,325.711421 503.532033,325.905292 504.093593,325.905292 Z" id="TheJaneStreetlogo." fill="#454038" fill-rule="nonzero"></path>
            <g id="Logo">
                <rect id="Outer-Rectangle" fill="#454038" x="0" y="0" width="600" height="254.038997"></rect>
                <rect id="Inner-Rectangle" stroke="#FEFFF4" stroke-width="3" x="36.597493" y="36.597493" width="525.133705" height="180.844011"></rect>
                <path d="M100.171588,154.72312 C101.294708,154.72312 102.631755,154.375487 104.18273,153.680223 C111.081894,150.685237 114.531476,144.641783 114.531476,135.549861 L114.531476,135.549861 L114.531476,102.016713 L118.542618,101.054039 C119.291365,100.840111 119.839554,100.586072 120.187187,100.291922 C120.534819,99.9977716 120.708635,99.5832869 120.708635,99.048468 C120.708635,98.3532033 120.414485,98.005571 119.826184,98.005571 L119.826184,98.005571 L104.904735,98.005571 C103.995543,98.005571 103.286908,98.2061281 102.77883,98.6072423 C102.270752,99.0083565 102.016713,99.556546 102.016713,100.251811 C102.016713,101.37493 102.471309,101.93649 103.380501,101.93649 L103.380501,101.93649 L108.113649,101.93649 L108.113649,135.148747 C108.113649,139.320334 107.257939,142.529248 105.546518,144.775487 C103.835097,147.021727 100.866852,148.840111 96.6417827,150.230641 C96.6952646,151.781616 97.0428969,152.918106 97.6846797,153.640111 C98.3264624,154.362117 99.1554318,154.72312 100.171588,154.72312 Z M137.555432,154.72312 C140.496936,154.72312 143.117549,154.121448 145.41727,152.918106 C147.716992,151.714763 149.588858,150.123677 151.032869,148.144847 L151.032869,148.144847 L151.35376,148.144847 L151.35376,153.760446 L161.461838,153.760446 C162.050139,153.760446 162.34429,153.439554 162.34429,152.797772 C162.34429,152.316435 162.170474,151.928691 161.822841,151.63454 C161.475209,151.34039 160.927019,151.086351 160.178273,150.872423 L160.178273,150.872423 L157.210028,150.070195 L157.210028,126.48468 C157.210028,122.473538 155.872981,119.344847 153.198886,117.098607 C150.524791,114.852368 147.10195,113.729248 142.930362,113.729248 C140.363231,113.729248 137.675766,114.157103 134.867967,115.012813 C132.060167,115.868524 129.58663,116.938162 127.447354,118.221727 L127.447354,118.221727 L127.447354,125.522006 C127.447354,125.842897 127.554318,126.096936 127.768245,126.284123 C127.982173,126.471309 128.276323,126.564903 128.650696,126.564903 C129.773816,126.564903 130.469081,125.789415 130.73649,124.23844 L130.73649,124.23844 L131.378273,120.708635 C132.71532,119.852925 134.41337,119.130919 136.472423,118.542618 C138.531476,117.954318 140.389972,117.660167 142.047911,117.660167 C144.935933,117.660167 147.182173,118.462396 148.78663,120.066852 C150.391086,121.671309 151.193315,123.783844 151.193315,126.404457 L151.193315,126.404457 L151.193315,129.934262 L139.881894,131.618942 C135.496379,132.260724 131.966574,133.504178 129.292479,135.349304 C126.618384,137.194429 125.281337,139.988858 125.281337,143.732591 C125.281337,147.208914 126.48468,149.909749 128.891365,151.835097 C131.29805,153.760446 134.186072,154.72312 137.555432,154.72312 Z M139.400557,150.631755 C137.047354,150.631755 135.122006,150.016713 133.624513,148.78663 C132.127019,147.556546 131.378273,145.764903 131.378273,143.411699 C131.378273,141.058496 132.233983,139.253482 133.945404,137.996657 C135.656825,136.739833 138.090251,135.844011 141.245682,135.309192 L141.245682,135.309192 L151.193315,133.704735 L151.193315,140.122563 C151.193315,142.047911 150.631755,143.812813 149.508635,145.41727 C148.385515,147.021727 146.914763,148.291922 145.096379,149.227855 C143.277994,150.163788 141.379387,150.631755 139.400557,150.631755 Z M184.325348,153.760446 C184.967131,153.760446 185.288022,153.439554 185.288022,152.797772 C185.288022,152.262953 185.114206,151.848468 184.766574,151.554318 C184.418942,151.260167 183.870752,151.032869 183.122006,150.872423 L183.122006,150.872423 L179.271309,149.989972 L179.271309,124.318663 C181.036212,122.339833 182.988301,120.775487 185.127577,119.625627 C187.266852,118.475766 189.379387,117.900836 191.465181,117.900836 C194.299721,117.900836 196.479109,118.689694 198.003343,120.267409 C199.527577,121.845125 200.289694,123.94429 200.289694,126.564903 L200.289694,126.564903 L200.289694,149.989972 L197.802786,149.989972 C196.947075,149.989972 196.265181,150.177159 195.757103,150.551532 C195.249025,150.925905 194.994986,151.460724 194.994986,152.155989 C194.994986,153.225627 195.422841,153.760446 196.278552,153.760446 L196.278552,153.760446 L211.360446,153.760446 C212.002228,153.760446 212.32312,153.439554 212.32312,152.797772 C212.32312,151.835097 211.601114,151.193315 210.157103,150.872423 L210.157103,150.872423 L206.306407,149.989972 L206.306407,126.083565 C206.306407,122.286351 205.076323,119.277994 202.616156,117.058496 C200.155989,114.838997 197.027298,113.729248 193.230084,113.729248 C188.416713,113.729248 183.737047,115.868524 179.191086,120.147075 L179.191086,120.147075 L178.950418,120.147075 L178.950418,114.531476 L170.767688,114.531476 C169.911978,114.531476 169.230084,114.705292 168.722006,115.052925 C168.213928,115.400557 167.959889,115.948747 167.959889,116.697493 C167.959889,117.767131 168.387744,118.30195 169.243454,118.30195 L169.243454,118.30195 L173.254596,118.30195 L173.254596,149.989972 L170.767688,149.989972 C169.911978,149.989972 169.230084,150.177159 168.722006,150.551532 C168.213928,150.925905 167.959889,151.460724 167.959889,152.155989 C167.959889,153.225627 168.387744,153.760446 169.243454,153.760446 L169.243454,153.760446 L184.325348,153.760446 Z M236.630641,154.72312 C240.962674,154.72312 244.78663,153.733705 248.102507,151.754875 C249.760446,150.738719 250.589415,149.749304 250.589415,148.78663 C250.589415,148.251811 250.428969,147.797214 250.108078,147.422841 C249.787187,147.048468 249.386072,146.861281 248.904735,146.861281 C248.583844,146.861281 248.249582,146.968245 247.90195,147.182173 C247.554318,147.3961 247.327019,147.529805 247.220056,147.583287 C245.615599,148.706407 243.997772,149.522006 242.366574,150.030084 C240.735376,150.538162 238.903621,150.792201 236.871309,150.792201 C233.020613,150.792201 229.83844,149.481894 227.324791,146.861281 C224.811142,144.240669 223.554318,140.470195 223.554318,135.549861 L223.554318,135.549861 L251.712535,135.549861 C252.407799,133.83844 252.755432,132.15376 252.755432,130.495822 C252.755432,125.415042 251.257939,121.350418 248.262953,118.30195 C245.267967,115.253482 241.176602,113.729248 235.988858,113.729248 C230.266295,113.729248 225.747075,115.601114 222.431198,119.344847 C219.11532,123.088579 217.457382,128.142618 217.457382,134.506964 C217.457382,138.62507 218.25961,142.208357 219.864067,145.256825 C221.468524,148.305292 223.714763,150.645125 226.602786,152.276323 C229.490808,153.907521 232.833426,154.72312 236.630641,154.72312 Z M246.337604,131.538719 L223.554318,131.538719 C223.821727,127.260167 225.078552,123.877437 227.324791,121.390529 C229.571031,118.903621 232.405571,117.660167 235.828412,117.660167 C239.090808,117.660167 241.711421,118.676323 243.690251,120.708635 C245.669081,122.740947 246.658496,125.602228 246.658496,129.292479 C246.658496,130.308635 246.551532,131.057382 246.337604,131.538719 L246.337604,131.538719 Z M302.333148,154.72312 C308.216156,154.72312 313.042897,153.546518 316.81337,151.193315 C320.583844,148.840111 322.469081,145.256825 322.469081,140.443454 C322.469081,137.555432 321.840669,135.081894 320.583844,133.022841 C319.327019,130.963788 317.535376,129.198886 315.208914,127.728134 C312.882451,126.257382 309.820613,124.746518 306.023398,123.195543 C301.691365,121.323677 298.509192,119.879666 296.47688,118.86351 C294.444568,117.847354 292.826741,116.644011 291.623398,115.253482 C290.420056,113.862953 289.818384,112.151532 289.818384,110.11922 C289.818384,107.177716 290.981616,104.998329 293.308078,103.581058 C295.63454,102.163788 298.589415,101.455153 302.172702,101.455153 C304.739833,101.455153 307.133148,101.762674 309.352646,102.377716 C311.572145,102.992758 313.430641,103.888579 314.928134,105.065181 L314.928134,105.065181 L315.971031,110.11922 C316.23844,111.402786 316.559331,112.271866 316.933705,112.726462 C317.308078,113.181058 317.816156,113.408357 318.457939,113.408357 C319.260167,113.408357 319.661281,113.007242 319.661281,112.205014 L319.661281,112.205014 L319.661281,102.738719 C317.575487,100.973816 314.914763,99.5832869 311.679109,98.5671309 C308.443454,97.5509749 305.140947,97.0428969 301.771588,97.0428969 C296.637326,97.0428969 292.278552,98.1927577 288.695265,100.492479 C285.111978,102.792201 283.320334,106.268524 283.320334,110.921448 C283.320334,114.825627 284.750975,118.02117 287.612256,120.508078 C290.473538,122.994986 294.685237,125.36156 300.247354,127.607799 C304.36546,129.265738 307.49415,130.683008 309.633426,131.85961 C311.772702,133.036212 313.363788,134.333148 314.406685,135.750418 C315.449582,137.167688 315.971031,138.91922 315.971031,141.005014 C315.971031,144.267409 314.607242,146.633983 311.879666,148.104735 C309.152089,149.575487 305.809471,150.310864 301.851811,150.310864 C299.338162,150.310864 296.771031,150.003343 294.150418,149.388301 C291.529805,148.773259 289.41727,147.877437 287.812813,146.700836 L287.812813,146.700836 L286.769916,141.566574 C286.555989,140.33649 286.248468,139.48078 285.847354,138.999443 C285.44624,138.518106 284.924791,138.277437 284.283008,138.277437 C283.908635,138.277437 283.614485,138.397772 283.400557,138.63844 C283.18663,138.879109 283.079666,139.159889 283.079666,139.48078 L283.079666,139.48078 L283.079666,149.348189 C285.218942,151.006128 288.147075,152.316435 291.864067,153.279109 C295.581058,154.241783 299.070752,154.72312 302.333148,154.72312 Z M346.45571,154.72312 C349.397214,154.72312 351.857382,154.027855 353.836212,152.637326 C355.440669,151.567688 356.242897,150.524791 356.242897,149.508635 C356.242897,148.973816 356.082451,148.559331 355.76156,148.265181 C355.440669,147.971031 355.039554,147.823955 354.558217,147.823955 C354.183844,147.823955 353.675766,148.091365 353.033983,148.626184 C352.231755,149.37493 351.402786,149.909749 350.547075,150.230641 C349.691365,150.551532 348.70195,150.711978 347.57883,150.711978 C345.974373,150.711978 344.704178,150.244011 343.768245,149.308078 C342.832312,148.372145 342.364345,146.994986 342.364345,145.176602 L342.364345,145.176602 L342.364345,118.783287 L352.231755,117.74039 C353.354875,117.633426 354.183844,117.419499 354.718663,117.098607 C355.253482,116.777716 355.520891,116.296379 355.520891,115.654596 C355.520891,115.012813 355.2,114.691922 354.558217,114.691922 L354.558217,114.691922 L342.364345,114.691922 L342.364345,106.188301 L337.470752,106.188301 L336.427855,114.691922 L332.33649,114.691922 C331.48078,114.691922 330.798886,114.90585 330.290808,115.333705 C329.78273,115.76156 329.528691,116.32312 329.528691,117.018384 C329.528691,117.553203 329.649025,117.981058 329.889694,118.30195 C330.130362,118.622841 330.464624,118.783287 330.892479,118.783287 L330.892479,118.783287 L336.347632,118.783287 L336.347632,144.775487 C336.347632,147.877437 337.310306,150.310864 339.235655,152.075766 C341.161003,153.840669 343.567688,154.72312 346.45571,154.72312 Z M378.62507,153.760446 C379.266852,153.760446 379.587744,153.439554 379.587744,152.797772 C379.587744,152.262953 379.413928,151.848468 379.066295,151.554318 C378.718663,151.260167 378.170474,151.032869 377.421727,150.872423 L377.421727,150.872423 L373.571031,149.989972 L373.571031,126.805571 C378.491365,122.045682 383.759331,119.665738 389.37493,119.665738 C389.695822,119.344847 389.949861,118.930362 390.137047,118.422284 C390.324234,117.914206 390.417827,117.392758 390.417827,116.857939 C390.417827,115.895265 390.123677,115.133148 389.535376,114.571588 C388.947075,114.010028 388.091365,113.729248 386.968245,113.729248 C384.935933,113.729248 382.689694,114.571588 380.229526,116.256267 C377.769359,117.940947 375.52312,120.01337 373.490808,122.473538 L373.490808,122.473538 L373.250139,122.473538 L373.250139,114.531476 L365.067409,114.531476 C364.211699,114.531476 363.529805,114.705292 363.021727,115.052925 C362.513649,115.400557 362.25961,115.948747 362.25961,116.697493 C362.25961,117.767131 362.687465,118.30195 363.543175,118.30195 L363.543175,118.30195 L367.554318,118.30195 L367.554318,149.989972 L365.067409,149.989972 C364.211699,149.989972 363.529805,150.177159 363.021727,150.551532 C362.513649,150.925905 362.25961,151.460724 362.25961,152.155989 C362.25961,153.225627 362.687465,153.760446 363.543175,153.760446 L363.543175,153.760446 L378.62507,153.760446 Z M413.92312,154.72312 C418.255153,154.72312 422.079109,153.733705 425.394986,151.754875 C427.052925,150.738719 427.881894,149.749304 427.881894,148.78663 C427.881894,148.251811 427.721448,147.797214 427.400557,147.422841 C427.079666,147.048468 426.678552,146.861281 426.197214,146.861281 C425.876323,146.861281 425.542061,146.968245 425.194429,147.182173 C424.846797,147.3961 424.619499,147.529805 424.512535,147.583287 C422.908078,148.706407 421.290251,149.522006 419.659053,150.030084 C418.027855,150.538162 416.1961,150.792201 414.163788,150.792201 C410.313092,150.792201 407.130919,149.481894 404.61727,146.861281 C402.103621,144.240669 400.846797,140.470195 400.846797,135.549861 L400.846797,135.549861 L429.005014,135.549861 C429.700279,133.83844 430.047911,132.15376 430.047911,130.495822 C430.047911,125.415042 428.550418,121.350418 425.555432,118.30195 C422.560446,115.253482 418.469081,113.729248 413.281337,113.729248 C407.558774,113.729248 403.039554,115.601114 399.723677,119.344847 C396.407799,123.088579 394.749861,128.142618 394.749861,134.506964 C394.749861,138.62507 395.552089,142.208357 397.156546,145.256825 C398.761003,148.305292 401.007242,150.645125 403.895265,152.276323 C406.783287,153.907521 410.125905,154.72312 413.92312,154.72312 Z M423.630084,131.538719 L400.846797,131.538719 C401.114206,127.260167 402.371031,123.877437 404.61727,121.390529 C406.86351,118.903621 409.69805,117.660167 413.120891,117.660167 C416.383287,117.660167 419.0039,118.676323 420.98273,120.708635 C422.96156,122.740947 423.950975,125.602228 423.950975,129.292479 C423.950975,130.308635 423.844011,131.057382 423.630084,131.538719 L423.630084,131.538719 Z M455.558774,154.72312 C459.890808,154.72312 463.714763,153.733705 467.030641,151.754875 C468.688579,150.738719 469.517549,149.749304 469.517549,148.78663 C469.517549,148.251811 469.357103,147.797214 469.036212,147.422841 C468.71532,147.048468 468.314206,146.861281 467.832869,146.861281 C467.511978,146.861281 467.177716,146.968245 466.830084,147.182173 C466.482451,147.3961 466.255153,147.529805 466.148189,147.583287 C464.543733,148.706407 462.925905,149.522006 461.294708,150.030084 C459.66351,150.538162 457.831755,150.792201 455.799443,150.792201 C451.948747,150.792201 448.766574,149.481894 446.252925,146.861281 C443.739276,144.240669 442.482451,140.470195 442.482451,135.549861 L442.482451,135.549861 L470.640669,135.549861 C471.335933,133.83844 471.683565,132.15376 471.683565,130.495822 C471.683565,125.415042 470.186072,121.350418 467.191086,118.30195 C464.1961,115.253482 460.104735,113.729248 454.916992,113.729248 C449.194429,113.729248 444.675209,115.601114 441.359331,119.344847 C438.043454,123.088579 436.385515,128.142618 436.385515,134.506964 C436.385515,138.62507 437.187744,142.208357 438.792201,145.256825 C440.396657,148.305292 442.642897,150.645125 445.530919,152.276323 C448.418942,153.907521 451.76156,154.72312 455.558774,154.72312 Z M465.265738,131.538719 L442.482451,131.538719 C442.749861,127.260167 444.006685,123.877437 446.252925,121.390529 C448.499164,118.903621 451.333705,117.660167 454.756546,117.660167 C458.018942,117.660167 460.639554,118.676323 462.618384,120.708635 C464.597214,122.740947 465.58663,125.602228 465.58663,129.292479 C465.58663,130.308635 465.479666,131.057382 465.265738,131.538719 L465.265738,131.538719 Z M494.547075,154.72312 C497.488579,154.72312 499.948747,154.027855 501.927577,152.637326 C503.532033,151.567688 504.334262,150.524791 504.334262,149.508635 C504.334262,148.973816 504.173816,148.559331 503.852925,148.265181 C503.532033,147.971031 503.130919,147.823955 502.649582,147.823955 C502.275209,147.823955 501.767131,148.091365 501.125348,148.626184 C500.32312,149.37493 499.49415,149.909749 498.63844,150.230641 C497.78273,150.551532 496.793315,150.711978 495.670195,150.711978 C494.065738,150.711978 492.795543,150.244011 491.85961,149.308078 C490.923677,148.372145 490.45571,146.994986 490.45571,145.176602 L490.45571,145.176602 L490.45571,118.783287 L500.32312,117.74039 C501.44624,117.633426 502.275209,117.419499 502.810028,117.098607 C503.344847,116.777716 503.612256,116.296379 503.612256,115.654596 C503.612256,115.012813 503.291365,114.691922 502.649582,114.691922 L502.649582,114.691922 L490.45571,114.691922 L490.45571,106.188301 L485.562117,106.188301 L484.51922,114.691922 L480.427855,114.691922 C479.572145,114.691922 478.890251,114.90585 478.382173,115.333705 C477.874095,115.76156 477.620056,116.32312 477.620056,117.018384 C477.620056,117.553203 477.74039,117.981058 477.981058,118.30195 C478.221727,118.622841 478.555989,118.783287 478.983844,118.783287 L478.983844,118.783287 L484.438997,118.783287 L484.438997,144.775487 C484.438997,147.877437 485.401671,150.310864 487.327019,152.075766 C489.252368,153.840669 491.659053,154.72312 494.547075,154.72312 Z" id="JaneStreet" fill="#FEFFF4" fill-rule="nonzero"></path>
            </g>
        </g>
    </g>
</svg>